<svg style="cursor:pointer" width="203" height="48" viewBox="0 0 203 48" fill="none" xmlns="http://www.w3.org/2000/svg"><g clip-path="url(#clip0_124_8120)"><path d="M20.3811 9.56225L11.7623 4.78112L20.3811 0L28.9998 4.78112L20.3811 9.56225ZM20.3811 11.8773L16.0848 14.2679L11.7885 16.6584L20.4072 21.4396L29.026 16.6584L20.3811 11.8773ZM18.2853 10.7198L9.66659 5.93864L1.04785 10.7198L9.66659 15.5009L18.2853 10.7198ZM22.4768 10.7198L31.0955 15.5009L39.7143 10.7198L31.0955 5.93864L26.7993 8.32925L22.4768 10.7198Z" fill="white"></path><path d="M14.4868 20.5085L0 12.4561V28.5357C0 31.8322 1.85997 34.9273 4.82021 36.5881L19.307 44.6154V30.2468V28.5357C19.3332 25.2393 17.4732 22.1441 14.4868 20.5085Z" fill="#00D1EF"></path><path d="M40.7621 12.4561L26.2753 20.5085C23.2888 22.1693 21.4551 25.2393 21.4551 28.5357V44.6154L35.9419 36.5881C38.9283 34.9273 40.7621 31.8573 40.7883 28.5357L40.7621 12.4561Z" fill="#52E8A4"></path><path fill-rule="evenodd" clip-rule="evenodd" d="M71.8837 33.7679V11.0151H68.3847V33.7679H71.8837ZM64.5339 24.6314C65.3392 25.6381 65.7424 26.7707 65.7424 28.0544C65.7424 29.1366 65.4652 30.1182 64.8863 30.9991C64.3326 31.88 63.5022 32.5596 62.4448 33.0629C61.3879 33.5664 60.1292 33.8181 58.7199 33.8181H50.1626V12.3993H58.3173C59.7773 12.3993 61.0355 12.651 62.0678 13.1292C63.1246 13.6326 63.9048 14.2869 64.4335 15.1175C64.9622 15.9481 65.2388 16.8793 65.2388 17.9113C65.2388 19.1446 64.9114 20.1765 64.2573 20.9819C63.6025 21.8125 62.7219 22.4165 61.6144 22.794C62.747 23.0206 63.7286 23.6246 64.5339 24.6314ZM53.6863 21.3846H58.0156C59.1733 21.3846 60.0539 21.1329 60.7081 20.6043C61.3628 20.0758 61.6902 19.3207 61.6902 18.3391C61.6902 17.3827 61.3628 16.6276 60.7081 16.0739C60.0539 15.5202 59.1733 15.2685 58.0156 15.2685H53.6863V21.3846ZM61.2117 30.0679C61.8915 29.489 62.2183 28.6836 62.2183 27.6768C62.2183 26.6197 61.8659 25.7891 61.1364 25.1851C60.4064 24.5811 59.4751 24.2539 58.2671 24.2539H53.6611V30.9236H58.3926C59.6011 30.9236 60.5324 30.6467 61.2117 30.0679ZM147.443 24.6314C148.248 25.6381 148.651 26.7707 148.651 28.0544C148.651 29.1366 148.374 30.1182 147.795 30.9991C147.241 31.88 146.411 32.5596 145.354 33.0629C144.297 33.5664 143.038 33.8181 141.629 33.8181H133.071V12.3993H141.226C142.686 12.3993 143.944 12.651 144.976 13.1292C146.033 13.6326 146.814 14.2869 147.342 15.1175C147.87 15.9481 148.148 16.8793 148.148 17.9113C148.148 19.1446 147.82 20.1765 147.165 20.9819C146.511 21.8125 145.63 22.4165 144.523 22.794C145.656 23.0206 146.637 23.6246 147.443 24.6314ZM136.595 21.3846H140.924C142.082 21.3846 142.963 21.1329 143.617 20.6043C144.271 20.0758 144.598 19.3207 144.598 18.3391C144.598 17.3827 144.271 16.6276 143.617 16.0739C142.963 15.5202 142.082 15.2685 140.924 15.2685H136.595V21.3846ZM144.12 30.0679C144.8 29.489 145.127 28.6836 145.127 27.6768C145.127 26.6197 144.775 25.7891 144.045 25.1851C143.315 24.5811 142.384 24.2539 141.175 24.2539H136.569V30.9236H141.301C142.509 30.9236 143.441 30.6467 144.12 30.0679ZM78.276 32.9623C76.9927 32.2325 75.9604 31.2005 75.231 29.8917C74.501 28.5578 74.1234 27.0477 74.1234 25.2858C74.1234 23.5743 74.501 22.039 75.2561 20.7051C76.0112 19.3711 77.0429 18.3392 78.3518 17.6344C79.6607 16.9046 81.1202 16.5522 82.7565 16.5522C84.3671 16.5522 85.8522 16.9046 87.1606 17.6344C88.4695 18.3643 89.5018 19.3711 90.2569 20.7051C91.0114 22.039 91.389 23.5743 91.389 25.2858C91.389 26.9973 91.0114 28.5326 90.2312 29.8666C89.451 31.2005 88.3942 32.2325 87.0602 32.9623C85.7262 33.6922 84.2411 34.0446 82.6053 34.0446C80.9947 34.0698 79.5598 33.6922 78.276 32.9623ZM85.1473 30.37C85.9275 29.9421 86.5822 29.2877 87.0602 28.4319C87.5381 27.5762 87.7902 26.5191 87.7902 25.2858C87.7902 24.0525 87.5638 23.0206 87.0853 22.1649C86.6073 21.3091 85.9777 20.6799 85.1975 20.252C84.4173 19.8242 83.5869 19.5976 82.6806 19.5976C81.7749 19.5976 80.944 19.8242 80.1638 20.252C79.3836 20.6799 78.7796 21.3343 78.3267 22.1649C77.8733 23.0206 77.6469 24.0525 77.6469 25.2858C77.6469 27.1232 78.1254 28.5326 79.0562 29.5142C79.9875 30.521 81.1704 30.9992 82.5802 30.9992C83.5116 31.0244 84.342 30.7978 85.1473 30.37ZM96.5739 17.6344C95.3157 18.3643 94.3342 19.3711 93.6292 20.7051C92.9243 22.0139 92.5719 23.5492 92.5719 25.3362C92.5719 27.098 92.9243 28.6082 93.6292 29.9421C94.3342 31.2509 95.3157 32.2828 96.5739 33.0127C97.8326 33.7426 99.267 34.095 100.878 34.095C102.866 34.095 104.553 33.5664 105.912 32.5596C107.271 31.5529 108.177 30.1686 108.68 28.4571H104.905C104.25 30.2441 102.916 31.125 100.878 31.125C99.4432 31.125 98.3105 30.6216 97.455 29.5897C96.599 28.5578 96.1712 27.1483 96.1712 25.311C96.1712 23.4989 96.599 22.0642 97.455 21.0574C98.3105 20.0255 99.4432 19.5221 100.878 19.5221C101.885 19.5221 102.74 19.7487 103.42 20.2269C104.099 20.7051 104.603 21.3595 104.905 22.1901H108.68C108.202 20.3779 107.296 18.9936 105.962 18.012C104.628 17.0304 102.916 16.5522 100.878 16.5522C99.267 16.5522 97.8326 16.9046 96.5739 17.6344ZM117.49 25.3363L125.292 33.793H120.56L114.293 26.4941V33.793H110.794V11.0151H114.293V24.254L120.434 16.8292H125.292L117.49 25.3363ZM151.302 29.8917C152.032 31.2005 153.064 32.2325 154.347 32.9623C155.656 33.6922 157.091 34.0698 158.677 34.0446C160.313 34.0446 161.798 33.6922 163.132 32.9623C164.466 32.2325 165.522 31.2005 166.303 29.8666C167.083 28.5326 167.46 26.9973 167.46 25.2858C167.46 23.5743 167.083 22.039 166.328 20.7051C165.573 19.3711 164.541 18.3643 163.232 17.6344C161.924 16.9046 160.439 16.5522 158.827 16.5522C157.192 16.5522 155.732 16.9046 154.423 17.6344C153.114 18.3392 152.082 19.3711 151.328 20.7051C150.572 22.039 150.195 23.5743 150.195 25.2858C150.195 27.0477 150.572 28.5578 151.302 29.8917ZM163.132 28.4319C162.653 29.2877 161.999 29.9421 161.219 30.37C160.439 30.7978 159.582 31.0244 158.652 30.9992C157.242 30.9992 156.059 30.521 155.128 29.5142C154.196 28.5326 153.718 27.1232 153.718 25.2858C153.718 24.0525 153.945 23.0206 154.398 22.1649C154.851 21.3343 155.455 20.6799 156.235 20.252C157.015 19.8242 157.846 19.5976 158.752 19.5976C159.658 19.5976 160.489 19.8242 161.269 20.252C162.049 20.6799 162.678 21.3091 163.157 22.1649C163.635 23.0206 163.862 24.0525 163.862 25.2858C163.862 26.5191 163.61 27.5762 163.132 28.4319ZM175.238 17.2821C176.094 16.8039 177.1 16.5522 178.258 16.5522V20.1765H177.377C175.993 20.1765 174.961 20.5289 174.256 21.2336C173.552 21.9384 173.199 23.1464 173.199 24.858V33.7678H169.701V16.8291H173.199V19.2956C173.703 18.4399 174.382 17.7603 175.238 17.2821ZM194.442 19.8493C193.863 18.7671 193.032 17.9365 191.975 17.3828C190.918 16.8291 189.735 16.5522 188.376 16.5522C187.369 16.5522 186.413 16.7536 185.531 17.1311C184.651 17.5338 183.921 18.0624 183.342 18.7671V16.8291H179.843V33.7678H183.342V24.3042C183.342 22.7689 183.719 21.6112 184.5 20.8058C185.255 20.0003 186.312 19.5976 187.62 19.5976C188.929 19.5976 189.961 20.0003 190.716 20.8058C191.471 21.6112 191.849 22.7941 191.849 24.3042V33.7678H195.322V23.7757C195.322 22.2404 195.046 20.9316 194.442 19.8493Z" fill="white"></path><path d="M163.404 8.92308C163.404 3.995 167.399 0 172.327 0H195.75C199.754 0 203 3.24594 203 7.25C203 11.2541 199.754 14.5 195.75 14.5H163.404V8.92308Z" fill="#00D1EF"></path><path d="M176.413 4.92446C176.875 4.92446 177.286 5.04157 177.648 5.2758C178.016 5.50334 178.303 5.83461 178.511 6.26961C178.725 6.69792 178.832 7.20653 178.832 7.79546C178.832 8.37769 178.725 8.8863 178.511 9.3213C178.303 9.7563 178.016 10.0909 177.648 10.3251C177.286 10.5527 176.875 10.6665 176.413 10.6665C175.984 10.6665 175.616 10.5694 175.309 10.3753C175.001 10.1813 174.777 9.91692 174.636 9.5823V10.5962H172.919V3.16772H174.636V6.00861C174.777 5.67399 175.001 5.40965 175.309 5.21557C175.616 5.02149 175.984 4.92446 176.413 4.92446ZM175.861 6.43022C175.499 6.43022 175.202 6.55403 174.967 6.80165C174.74 7.04257 174.626 7.37384 174.626 7.79546C174.626 8.21038 174.74 8.54165 174.967 8.78926C175.202 9.03688 175.499 9.16069 175.861 9.16069C176.229 9.16069 176.523 9.04022 176.744 8.7993C176.972 8.55838 177.085 8.22376 177.085 7.79546C177.085 7.36715 176.972 7.03253 176.744 6.79161C176.523 6.55069 176.229 6.43022 175.861 6.43022ZM185.043 7.64488C185.043 7.78542 185.026 7.93934 184.993 8.10665H181.108C181.128 8.52826 181.235 8.83276 181.429 9.02015C181.623 9.20084 181.871 9.29119 182.172 9.29119C182.426 9.29119 182.637 9.22761 182.805 9.10046C182.972 8.9733 183.082 8.80934 183.136 8.60857H184.953C184.879 9.00342 184.719 9.35811 184.471 9.67265C184.223 9.98049 183.909 10.2248 183.527 10.4055C183.146 10.5795 182.721 10.6665 182.252 10.6665C181.704 10.6665 181.215 10.5527 180.787 10.3251C180.365 10.0909 180.034 9.7563 179.793 9.3213C179.552 8.8863 179.432 8.37769 179.432 7.79546C179.432 7.20653 179.549 6.69792 179.783 6.26961C180.024 5.83461 180.358 5.50334 180.787 5.2758C181.215 5.04157 181.704 4.92446 182.252 4.92446C182.808 4.92446 183.296 5.03822 183.718 5.26576C184.14 5.4933 184.464 5.81453 184.692 6.22946C184.926 6.63769 185.043 7.10949 185.043 7.64488ZM183.306 7.38388C183.313 7.0158 183.213 6.74142 183.005 6.56072C182.805 6.37334 182.554 6.27965 182.252 6.27965C181.938 6.27965 181.677 6.37334 181.469 6.56072C181.262 6.74811 181.145 7.02249 181.118 7.38388H183.306ZM189.11 9.12053V10.5962H188.337C187.682 10.5962 187.17 10.4356 186.802 10.1143C186.44 9.78642 186.259 9.24769 186.259 8.49815V6.44026H185.507V4.99472H186.259V3.61946H187.976V4.99472H189.1V6.44026H187.976V8.52826C187.976 8.74911 188.02 8.90303 188.107 8.99003C188.2 9.07703 188.354 9.12053 188.568 9.12053H189.11ZM192.203 4.92446C192.632 4.92446 193 5.02149 193.308 5.21557C193.615 5.40965 193.843 5.67399 193.99 6.00861V4.99472H195.697V10.5962H193.99V9.5823C193.843 9.91692 193.615 10.1813 193.308 10.3753C193 10.5694 192.632 10.6665 192.203 10.6665C191.742 10.6665 191.327 10.5527 190.959 10.3251C190.597 10.0909 190.309 9.7563 190.095 9.3213C189.888 8.8863 189.784 8.37769 189.784 7.79546C189.784 7.20653 189.888 6.69792 190.095 6.26961C190.309 5.83461 190.597 5.50334 190.959 5.2758C191.327 5.04157 191.742 4.92446 192.203 4.92446ZM192.755 6.43022C192.387 6.43022 192.09 6.55069 191.862 6.79161C191.641 7.03253 191.531 7.36715 191.531 7.79546C191.531 8.22376 191.641 8.55838 191.862 8.7993C192.09 9.04022 192.387 9.16069 192.755 9.16069C193.117 9.16069 193.411 9.03688 193.639 8.78926C193.873 8.54165 193.99 8.21038 193.99 7.79546C193.99 7.37384 193.873 7.04257 193.639 6.80165C193.411 6.55403 193.117 6.43022 192.755 6.43022Z" fill="#060F40"></path></g><defs><clipPath id="clip0_124_8120"><rect width="203" height="44.6154" fill="white"></rect></clipPath></defs></svg>